<?xml version="1.0" encoding="UTF-8" standalone="no" ?>
<!DOCTYPE svg PUBLIC "-//W3C//DTD SVG 1.1//EN" "http://www.w3.org/Graphics/SVG/1.1/DTD/svg11.dtd">
<svg xmlns="http://www.w3.org/2000/svg" xmlns:xlink="http://www.w3.org/1999/xlink" version="1.1" width="1000" height="1000" viewBox="0 0 1000 1000" xml:space="preserve">
<desc>Created with Fabric.js 3.6.6</desc>
<defs>
</defs>
<g transform="matrix(1 0 0 1 510.59 473.17)"  >
<g style=""   >
		<g transform="matrix(6.25 0 0 6.25 135.07 90.89)"  >
<path style="stroke: none; stroke-width: 1; stroke-dasharray: none; stroke-linecap: butt; stroke-dashoffset: 0; stroke-linejoin: miter; stroke-miterlimit: 4; fill: rgb(185,186,186); fill-rule: nonzero; opacity: 1;"  transform=" translate(-85.65, -94.86)" d="M 98.48 98.57 l -26.14 -5.68 l 0.37 -1.74 l 26.24 5.48 z" stroke-linecap="round" />
</g>
		<g transform="matrix(6.25 0 0 6.25 137.49 151.45)"  >
<path style="stroke: none; stroke-width: 1; stroke-dasharray: none; stroke-linecap: butt; stroke-dashoffset: 0; stroke-linejoin: miter; stroke-miterlimit: 4; fill: rgb(185,186,186); fill-rule: nonzero; opacity: 1;"  transform=" translate(-86.03, -104.55)" d="M 72 108.31 l -0.25 -1.73 l 28.15 -5.79 l 0.41 1.96 z" stroke-linecap="round" />
</g>
		<g transform="matrix(6.25 0 0 6.25 38.6 121.56)"  >
<path style="stroke: none; stroke-width: 1; stroke-dasharray: none; stroke-linecap: butt; stroke-dashoffset: 0; stroke-linejoin: miter; stroke-miterlimit: 4; fill: rgb(133,133,135); fill-rule: nonzero; opacity: 1;"  transform=" translate(-70.21, -99.77)" d="M 70.37 91.11 c -5.28 -0.25 -9.15 5.17 -8.71 9.54 c 0.46 4.54 3.78 7.88 8.89 7.78 c 4.82 -0.09 8.15 -3.43 8.24 -8.52 s -2.59 -8.52 -8.42 -8.8 z m 2.5 12.79 c -2.32 1.2 -5.15 0.42 -6.48 -2.04 c -1.2 -2.22 0.18 -5.59 2.59 -6.39 c 2.22 -0.74 4.48 0.19 5.65 2.04 c 1.29 2.03 0.74 5.09 -1.76 6.39 z" stroke-linecap="round" />
</g>
		<g transform="matrix(6.25 0 0 6.25 246.53 48.67)"  >
<path style="stroke: none; stroke-width: 1; stroke-dasharray: none; stroke-linecap: butt; stroke-dashoffset: 0; stroke-linejoin: miter; stroke-miterlimit: 4; fill: rgb(185,186,186); fill-rule: nonzero; opacity: 1;"  transform=" translate(-103.48, -88.1)" d="M 101.092 96.469 l 3.797 -16.95 l 0.976 0.219 l -3.797 16.95 z" stroke-linecap="round" />
</g>
		<g transform="matrix(6.25 0 0 6.25 288.27 67.08)"  >
<path style="stroke: none; stroke-width: 1; stroke-dasharray: none; stroke-linecap: butt; stroke-dashoffset: 0; stroke-linejoin: miter; stroke-miterlimit: 4; fill: rgb(185,186,186); fill-rule: nonzero; opacity: 1;"  transform=" translate(-110.16, -91.05)" d="M 101.39 98.43 l 11.75 -14.76 l 0.78 0.62 l -9.18 11.55 l 13.77 -6.19 l 0.41 0.91 z" stroke-linecap="round" />
</g>
		<g transform="matrix(6.25 0 0 6.25 294.79 134.3)"  >
<path style="stroke: none; stroke-width: 1; stroke-dasharray: none; stroke-linecap: butt; stroke-dashoffset: 0; stroke-linejoin: miter; stroke-miterlimit: 4; fill: rgb(185,186,186); fill-rule: nonzero; opacity: 1;"  transform=" translate(-111.2, -101.81)" d="M 119.78 106.84 l -18.2 -6.97 l 19.08 -3.1 l 0.16 0.99 l -15.42 2.5 l 14.73 5.65 z" stroke-linecap="round" />
</g>
		<g transform="matrix(6.25 0 0 6.25 214.64 46.21)"  >
<path style="stroke: none; stroke-width: 1; stroke-dasharray: none; stroke-linecap: butt; stroke-dashoffset: 0; stroke-linejoin: miter; stroke-miterlimit: 4; fill: rgb(185,186,186); fill-rule: nonzero; opacity: 1;"  transform=" translate(-98.38, -87.71)" d="M 99.4 96 l -3.04 -16.43 l 0.99 -0.15 l 3.04 16.43 z" stroke-linecap="round" />
</g>
		<g transform="matrix(6.25 0 0 6.25 175.02 68.7)"  >
<path style="stroke: none; stroke-width: 1; stroke-dasharray: none; stroke-linecap: butt; stroke-dashoffset: 0; stroke-linejoin: miter; stroke-miterlimit: 4; fill: rgb(185,186,186); fill-rule: nonzero; opacity: 1;"  transform=" translate(-92.04, -91.31)" d="M 86.127 85.228 l 0.758 -0.654 l 11.06 12.818 l -0.757 0.653 z" stroke-linecap="round" />
</g>
		<g transform="matrix(6.25 0 0 6.25 171.08 164.05)"  >
<path style="stroke: none; stroke-width: 1; stroke-dasharray: none; stroke-linecap: butt; stroke-dashoffset: 0; stroke-linejoin: miter; stroke-miterlimit: 4; fill: rgb(185,186,186); fill-rule: nonzero; opacity: 1;"  transform=" translate(-91.41, -106.57)" d="M 85.18 113.54 l -0.6 -0.8 l 0.3 0.4 l -0.32 -0.38 c 0.39 -0.35 9.5 -9.63 12.98 -13.17 l 0.71 0.7 c -3.84 3.91 -12.81 13.05 -13.07 13.25 z" stroke-linecap="round" />
</g>
		<g transform="matrix(6.25 0 0 6.25 225.66 193.19)"  >
<path style="stroke: none; stroke-width: 1; stroke-dasharray: none; stroke-linecap: butt; stroke-dashoffset: 0; stroke-linejoin: miter; stroke-miterlimit: 4; fill: rgb(185,186,186); fill-rule: nonzero; opacity: 1;"  transform=" translate(-100.14, -111.23)" d="M 98.374 102.021 l 0.991 -0.136 l 2.537 18.548 l -0.991 0.136 z" stroke-linecap="round" />
</g>
		<g transform="matrix(6.25 0 0 6.25 249.26 190.33)"  >
<path style="stroke: none; stroke-width: 1; stroke-dasharray: none; stroke-linecap: butt; stroke-dashoffset: 0; stroke-linejoin: miter; stroke-miterlimit: 4; fill: rgb(185,186,186); fill-rule: nonzero; opacity: 1;"  transform=" translate(-103.91, -110.77)" d="M 92.8 119.43 l -0.87 -0.48 l 9.19 -16.84 l 14.78 11.09 l -0.6 0.8 l -13.86 -10.39 z" stroke-linecap="round" />
</g>
		<g transform="matrix(6.25 0 0 6.25 264.52 184.49)"  >
<path style="stroke: none; stroke-width: 1; stroke-dasharray: none; stroke-linecap: butt; stroke-dashoffset: 0; stroke-linejoin: miter; stroke-miterlimit: 4; fill: rgb(185,186,186); fill-rule: nonzero; opacity: 1;"  transform=" translate(-106.36, -109.84)" d="M 102.57 101.49 l 0.932 -0.362 l 6.64 17.053 l -0.933 0.363 z" stroke-linecap="round" />
</g>
		<g transform="matrix(6.25 0 0 6.25 228.92 119.76)"  >
<ellipse style="stroke: none; stroke-width: 1; stroke-dasharray: none; stroke-linecap: butt; stroke-dashoffset: 0; stroke-linejoin: miter; stroke-miterlimit: 4; fill: rgb(201,200,200); fill-rule: nonzero; opacity: 1;"  cx="0" cy="0" rx="4.08" ry="3.96" />
</g>
		<g transform="matrix(6.25 0 0 6.25 227.34 121)"  >
<path style="stroke: none; stroke-width: 1; stroke-dasharray: none; stroke-linecap: butt; stroke-dashoffset: 0; stroke-linejoin: miter; stroke-miterlimit: 4; fill: rgb(72,77,80); fill-rule: nonzero; opacity: 1;"  transform=" translate(-100.41, -99.68)" d="M 100.17 75.1 c -13.87 0.15 -24.01 10.51 -24.41 24.18 c -0.39 13.1 10 24.52 23.87 24.96 c 14.82 0.47 25.75 -11.01 25.43 -24.69 c -0.32 -13.3 -10.69 -24.61 -24.89 -24.45 z m -0.51 45.46 c -11.89 -0.38 -20.8 -10.16 -20.46 -21.4 c 0.35 -11.72 9.04 -20.6 20.93 -20.73 c 12.17 -0.13 21.06 9.56 21.33 20.96 c 0.27 11.73 -9.09 21.57 -21.8 21.17 z" stroke-linecap="round" />
</g>
		<g transform="matrix(6.25 0 0 6.25 227.78 120.89)"  >
<path style="stroke: none; stroke-width: 1; stroke-dasharray: none; stroke-linecap: butt; stroke-dashoffset: 0; stroke-linejoin: miter; stroke-miterlimit: 4; fill: rgb(201,201,201); fill-rule: nonzero; opacity: 1;"  transform=" translate(-100.48, -99.66)" d="M 100.28 77.9 c -12.29 0.14 -21.27 9.31 -21.63 21.41 c -0.35 11.6 8.86 21.71 21.14 22.1 c 13.13 0.41 22.81 -9.75 22.52 -21.86 c -0.27 -11.77 -9.46 -21.78 -22.03 -21.65 z m -0.57 41.7 c -11.26 -0.35 -19.25 -9.6 -18.93 -20.14 c 0.33 -11 8 -19.05 19.27 -19.17 c 11.53 -0.13 20.36 8.97 20.21 19.68 c -0.16 10.65 -8.51 20.01 -20.55 19.63 z" stroke-linecap="round" />
</g>
		<g transform="matrix(6.25 0 0 6.25 -233.81 189.42)"  >
<path style="stroke: none; stroke-width: 1; stroke-dasharray: none; stroke-linecap: butt; stroke-dashoffset: 0; stroke-linejoin: miter; stroke-miterlimit: 4; fill: rgb(185,186,186); fill-rule: nonzero; opacity: 1;"  transform=" translate(-26.62, -110.62)" d="M 23.934 120.375 l 4.303 -19.738 l 1.075 0.235 l -4.303 19.737 z" stroke-linecap="round" />
</g>
		<g transform="matrix(6.25 0 0 6.25 -162.79 99.62)"  >
<path style="stroke: none; stroke-width: 1; stroke-dasharray: none; stroke-linecap: butt; stroke-dashoffset: 0; stroke-linejoin: miter; stroke-miterlimit: 4; fill: rgb(185,186,186); fill-rule: nonzero; opacity: 1;"  transform=" translate(-37.99, -96.26)" d="M 29.052 99.098 l 17.476 -6.71 l 0.394 1.026 l -17.475 6.711 z" stroke-linecap="round" />
</g>
		<g transform="matrix(6.25 0 0 6.25 -196.08 105.02)"  >
<path style="stroke: none; stroke-width: 1; stroke-dasharray: none; stroke-linecap: butt; stroke-dashoffset: 0; stroke-linejoin: miter; stroke-miterlimit: 4; fill: rgb(185,186,186); fill-rule: nonzero; opacity: 1;"  transform=" translate(-32.66, -97.12)" d="M 41.2 115.01 L 28.02 98.58 l -4.76 -19.09 l 1.07 -0.26 l 4.7 18.85 l 13.03 16.24 z" stroke-linecap="round" />
</g>
		<g transform="matrix(6.25 0 0 6.25 -214.55 55.46)"  >
<path style="stroke: none; stroke-width: 1; stroke-dasharray: none; stroke-linecap: butt; stroke-dashoffset: 0; stroke-linejoin: miter; stroke-miterlimit: 4; fill: rgb(185,186,186); fill-rule: nonzero; opacity: 1;"  transform=" translate(-29.71, -89.19)" d="M 27.01 98.57 l -0.95 -0.43 l 6.24 -18.33 l 1.05 0.33 z" stroke-linecap="round" />
</g>
		<g transform="matrix(6.25 0 0 6.25 -178.71 75.66)"  >
<path style="stroke: none; stroke-width: 1; stroke-dasharray: none; stroke-linecap: butt; stroke-dashoffset: 0; stroke-linejoin: miter; stroke-miterlimit: 4; fill: rgb(185,186,186); fill-rule: nonzero; opacity: 1;"  transform=" translate(-35.44, -92.42)" d="M 27.82 98.814 l 14.485 -13.586 l 0.753 0.802 l -14.486 13.586 z" stroke-linecap="round" />
</g>
		<g transform="matrix(6.25 0 0 6.25 -288.72 79.18)"  >
<path style="stroke: none; stroke-width: 1; stroke-dasharray: none; stroke-linecap: butt; stroke-dashoffset: 0; stroke-linejoin: miter; stroke-miterlimit: 4; fill: rgb(185,186,186); fill-rule: nonzero; opacity: 1;"  transform=" translate(-17.84, -92.99)" d="M 9.315 88.774 l 0.543 -0.957 l 16.5 9.382 l -0.544 0.956 z" stroke-linecap="round" />
</g>
		<g transform="matrix(6.25 0 0 6.25 -297.95 162.45)"  >
<path style="stroke: none; stroke-width: 1; stroke-dasharray: none; stroke-linecap: butt; stroke-dashoffset: 0; stroke-linejoin: miter; stroke-miterlimit: 4; fill: rgb(185,186,186); fill-rule: nonzero; opacity: 1;"  transform=" translate(-16.36, -106.31)" d="M 17.04 117.82 l -0.98 -0.48 l 8.51 -17.26 l -18.02 -4.21 l 0.25 -1.07 l 19.37 4.52 z" stroke-linecap="round" />
</g>
		<g transform="matrix(6.25 0 0 6.25 -293.33 82.77)"  >
<path style="stroke: none; stroke-width: 1; stroke-dasharray: none; stroke-linecap: butt; stroke-dashoffset: 0; stroke-linejoin: miter; stroke-miterlimit: 4; fill: rgb(185,186,186); fill-rule: nonzero; opacity: 1;"  transform=" translate(-17.1, -93.56)" d="M 6.83 105.25 l -0.3 -1.06 l 19.43 -5.53 l -10.16 -16.2 l 0.93 -0.59 l 10.94 17.44 z" stroke-linecap="round" />
</g>
		<g transform="matrix(6.25 0 0 6.25 -222.99 168.8)"  >
<path style="stroke: none; stroke-width: 1; stroke-dasharray: none; stroke-linecap: butt; stroke-dashoffset: 0; stroke-linejoin: miter; stroke-miterlimit: 4; fill: rgb(185,186,186); fill-rule: nonzero; opacity: 1;"  transform=" translate(-28.36, -107.32)" d="M 10.78 113.27 l -0.6 -0.93 l 16.95 -10.96 l 19.4 4.83 l -0.26 1.06 l -18.94 -4.71 z" stroke-linecap="round" />
</g>
		<g transform="matrix(6.25 0 0 6.25 -212.09 189.95)"  >
<path style="stroke: none; stroke-width: 1; stroke-dasharray: none; stroke-linecap: butt; stroke-dashoffset: 0; stroke-linejoin: miter; stroke-miterlimit: 4; fill: rgb(185,186,186); fill-rule: nonzero; opacity: 1;"  transform=" translate(-30.1, -110.71)" d="M 25.751 102.025 l 1.01 -0.436 l 7.686 17.802 l -1.01 0.436 z" stroke-linecap="round" />
</g>
		<g transform="matrix(6.25 0 0 6.25 -155.7 115.58)"  >
<path style="stroke: none; stroke-width: 1; stroke-dasharray: none; stroke-linecap: butt; stroke-dashoffset: 0; stroke-linejoin: miter; stroke-miterlimit: 4; fill: rgb(185,186,186); fill-rule: nonzero; opacity: 1;"  transform=" translate(-39.12, -98.81)" d="M 30.49 98.467 l 0.114 -1.094 l 17.149 1.78 l -0.114 1.093 z" stroke-linecap="round" />
</g>
		<g transform="matrix(6.25 0 0 6.25 -228.35 121.44)"  >
<path style="stroke: none; stroke-width: 1; stroke-dasharray: none; stroke-linecap: butt; stroke-dashoffset: 0; stroke-linejoin: miter; stroke-miterlimit: 4; fill: rgb(72,77,80); fill-rule: nonzero; opacity: 1;"  transform=" translate(-27.5, -99.75)" d="M 27.26 75.17 c -13.87 0.15 -24 10.51 -24.41 24.18 c -0.39 13.1 10 24.52 23.87 24.96 c 14.82 0.47 25.75 -11.01 25.43 -24.69 c -0.31 -13.3 -10.69 -24.61 -24.89 -24.45 z m -0.51 45.46 c -11.89 -0.38 -20.8 -10.16 -20.46 -21.4 c 0.35 -11.72 9.04 -20.6 20.93 -20.73 c 12.17 -0.13 21.06 9.56 21.33 20.96 c 0.28 11.73 -9.09 21.57 -21.8 21.17 z" stroke-linecap="round" />
</g>
		<g transform="matrix(6.25 0 0 6.25 -227.84 121.37)"  >
<path style="stroke: none; stroke-width: 1; stroke-dasharray: none; stroke-linecap: butt; stroke-dashoffset: 0; stroke-linejoin: miter; stroke-miterlimit: 4; fill: rgb(201,201,201); fill-rule: nonzero; opacity: 1;"  transform=" translate(-27.58, -99.74)" d="M 27.37 77.97 c -12.29 0.14 -21.26 9.31 -21.62 21.42 c -0.35 11.6 8.86 21.71 21.14 22.1 c 13.13 0.41 22.81 -9.75 22.52 -21.86 c -0.28 -11.78 -9.46 -21.79 -22.04 -21.66 z m -0.56 41.7 c -11.26 -0.35 -19.25 -9.6 -18.93 -20.14 c 0.33 -11 8 -19.05 19.27 -19.17 c 11.53 -0.13 20.36 8.97 20.21 19.68 c -0.17 10.65 -8.52 20.01 -20.55 19.63 z" stroke-linecap="round" />
</g>
		<g transform="matrix(6.25 0 0 6.25 -133.43 -216.14)"  >
<path style="stroke: none; stroke-width: 1; stroke-dasharray: none; stroke-linecap: butt; stroke-dashoffset: 0; stroke-linejoin: miter; stroke-miterlimit: 4; fill: rgb(201,201,201); fill-rule: nonzero; opacity: 1;"  transform=" translate(-42.68, -45.74)" d="M 48.1 53.21 s 1.43 -3.36 1.49 -4.18 c 0.06 -0.83 -0.24 -1.77 -1.62 -1.82 c -1.38 -0.06 -4.23 -0.16 -4.23 -0.16 l -2.8 -5.6 l -1.92 -3.04 s -1.43 -0.5 -2.37 0.33 s -1.16 1.76 -0.5 3.03 s 3.96 8.26 4.73 8.48 c 0.77 0.22 3.96 0.06 4.18 0.17 c 0.22 0.11 -0.99 2.53 -0.99 2.53 l 4.03 0.26 z" stroke-linecap="round" />
</g>
		<g transform="matrix(6.25 0 0 6.25 112.76 -161.74)"  >
<path style="stroke: none; stroke-width: 1; stroke-dasharray: none; stroke-linecap: butt; stroke-dashoffset: 0; stroke-linejoin: miter; stroke-miterlimit: 4; fill: rgb(179,179,179); fill-rule: nonzero; opacity: 1;"  transform=" translate(-82.07, -54.44)" d="M 90.15 55.08 l -4.82 2.96 l -3.5 -2 s -1.76 -1.36 -3.04 -1.83 c -1.57 -0.58 -3.72 -0.29 -4.76 -1.78 c -0.81 -1.15 14.35 -1.59 14.35 -1.59 l 1.77 4.24 z" stroke-linecap="round" />
</g>
		<g transform="matrix(6.25 0 0 6.25 126.61 -175.45)"  >
<path style="stroke: none; stroke-width: 1; stroke-dasharray: none; stroke-linecap: butt; stroke-dashoffset: 0; stroke-linejoin: miter; stroke-miterlimit: 4; fill: rgb(94,98,104); fill-rule: nonzero; opacity: 1;"  transform=" translate(-84.29, -52.24)" d="M 76.55 48.89 c -2.59 0.18 -3.75 0.27 -4.02 1.34 c -0.29 1.15 1.95 2.78 2.92 3.25 c 1.01 0.49 5.9 -0.98 6.6 -0.83 c 2.04 0.44 5.12 3.08 6.71 3.14 c 1.6 0.06 6.34 -3.68 6.77 -4.02 c 0.77 -0.61 1.05 -2.75 -1.38 -2.97 c -2.41 -0.21 -15.56 -0.05 -17.6 0.09 z" stroke-linecap="round" />
</g>
		<g transform="matrix(6.25 0 0 6.25 -95.19 -252.69)"  >
<path style="stroke: none; stroke-width: 1; stroke-dasharray: none; stroke-linecap: butt; stroke-dashoffset: 0; stroke-linejoin: miter; stroke-miterlimit: 4; fill: rgb(94,98,104); fill-rule: nonzero; opacity: 1;"  transform=" translate(-48.8, -39.89)" d="M 39.36 37.43 c -1.41 0.08 -1.14 2.89 -0.67 3.67 c 0.66 1.1 1.6 1.98 3.25 2.04 c 1.65 0.06 15.41 -0.72 16.46 -0.88 c 1.05 -0.17 1.04 -1.58 0.65 -3.03 c -0.25 -0.91 -1.09 -2.51 -2.13 -2.59 c -1.48 -0.11 -15.95 0.7 -17.56 0.79 z" stroke-linecap="round" />
</g>
		<g transform="matrix(6.25 0 0 6.25 -5.31 -6.91)"  >
<path style="stroke: none; stroke-width: 1; stroke-dasharray: none; stroke-linecap: butt; stroke-dashoffset: 0; stroke-linejoin: miter; stroke-miterlimit: 4; fill: rgb(6,21,196); fill-rule: nonzero; opacity: 1;"  transform=" translate(-63.18, -79.21)" d="M 101.26 97.73 l -16.79 -33.9 l 1.1 -5.89 l -4.67 -0.44 s -0.84 4.53 -1.06 4.69 c -0.22 0.17 -33.01 -0.56 -33.01 -0.56 l 1.73 -5.85 l -4.81 -0.59 c -0.5 1.54 -9.14 31.43 -11.23 35.11 c -2.09 3.69 -4.35 7.08 -4.35 7.08 s -0.89 -0.46 -1.91 -0.1 c -0.79 0.28 -2.17 1.23 -1.76 3.21 c 0.33 1.6 2.1 2.59 3.55 2.1 c 2.2 -0.75 1.98 -2.83 1.98 -2.83 s 5.21 -4.97 7.01 -7.92 c 1.78 -2.93 5.7 -17.05 5.8 -17.04 c 0.38 0.04 25.89 28.15 26.73 28.42 c 0.66 0.22 30.66 -2.04 30.66 -2.04 l 1.71 -1.32 l -0.68 -2.13 z m -32.28 -2.26 S 44.43 69.63 44.6 69.12 c 0.02 -0.06 0.62 -2.24 0.69 -2.34 c 0.2 -0.29 32.86 0.74 32.86 0.74 l -9.17 27.95 z m 3.88 3.25 L 82.38 69 L 97.3 97.62 l -24.44 1.1 z" stroke-linecap="round" />
</g>
		<g transform="matrix(6.25 0 0 6.25 -230.24 122.98)"  >
<path style="stroke: none; stroke-width: 1; stroke-dasharray: none; stroke-linecap: butt; stroke-dashoffset: 0; stroke-linejoin: miter; stroke-miterlimit: 4; fill: rgb(98,97,104); fill-rule: nonzero; opacity: 1;"  transform=" translate(-27.19, -99.99)" d="M 27.02 98.22 c -0.26 0.04 -1.62 1.38 -1.59 1.93 c 0.02 0.56 1.47 1.59 1.91 1.62 c 0.43 0.02 1.62 -1.5 1.62 -1.86 c -0.01 -0.36 -1.61 -1.74 -1.94 -1.69 z" stroke-linecap="round" />
</g>
		<g transform="matrix(6.25 0 0 6.25 230.57 119.76)"  >
<path style="stroke: none; stroke-width: 1; stroke-dasharray: none; stroke-linecap: butt; stroke-dashoffset: 0; stroke-linejoin: miter; stroke-miterlimit: 4; fill: rgb(98,97,104); fill-rule: nonzero; opacity: 1;"  transform=" translate(-100.92, -99.48)" d="M 100.12 97.56 c -0.28 0.16 -1.2 1.46 -1.23 1.85 c -0.03 0.39 0.66 1.85 0.9 1.94 c 0.24 0.09 1.61 0.12 1.97 0.03 s 1.2 -1.4 1.2 -1.76 s -0.51 -1.46 -0.72 -1.73 s -1.91 -0.45 -2.12 -0.33 z" stroke-linecap="round" />
</g>
		<g transform="matrix(6.25 0 0 6.25 116.96 -143.36)"  >
<path style="stroke: none; stroke-width: 1; stroke-dasharray: none; stroke-linecap: butt; stroke-dashoffset: 0; stroke-linejoin: miter; stroke-miterlimit: 4; fill: rgb(201,201,201); fill-rule: nonzero; opacity: 1;"  transform=" translate(-82.75, -57.38)" d="M 79.79 55.94 c -0.35 0.29 -0.79 2.88 0.05 2.93 s 5.7 0.16 6.02 0 s 0.37 -2.41 0.1 -2.72 s -5.86 -0.48 -6.17 -0.21 z" stroke-linecap="round" />
</g>
		<g transform="matrix(6.25 0 0 6.25 -110.68 -160.62)"  >
<path style="stroke: none; stroke-width: 1; stroke-dasharray: none; stroke-linecap: butt; stroke-dashoffset: 0; stroke-linejoin: miter; stroke-miterlimit: 4; fill: rgb(179,179,179); fill-rule: nonzero; opacity: 1;"  transform=" translate(-46.32, -54.62)" d="M 43.31 51.91 c -0.58 0.21 -1.78 3.82 -1.52 4.24 c 0.26 0.42 7.64 1.26 8.01 1.2 c 0.37 -0.05 1.31 -4.08 1.05 -4.4 s -7.01 -1.24 -7.54 -1.04 z" stroke-linecap="round" />
</g>
		<g transform="matrix(6.25 0 0 6.25 -6.19 155.57)"  >
<path style="stroke: none; stroke-width: 1; stroke-dasharray: none; stroke-linecap: butt; stroke-dashoffset: 0; stroke-linejoin: miter; stroke-miterlimit: 4; fill: rgb(179,179,179); fill-rule: nonzero; opacity: 1;"  transform=" translate(-63.04, -105.21)" d="M 59.92 106.6 s 6.78 -6.64 7.56 -7.36 c 0.64 -0.59 1.28 -1.42 2.43 -1.28 c 1.15 0.14 1.49 0.88 1.49 0.88 l -1.26 3.11 l -7.65 6.54 l -0.95 3.98 l -6.85 -1.58 s -0.01 -2.3 0 -2.87 c 0.01 -0.63 -0.13 -1.31 1.32 -1.31 s 3.91 -0.11 3.91 -0.11 z" stroke-linecap="round" />
</g>
		<g transform="matrix(6.25 0 0 6.25 -4 162.48)"  >
<path style="stroke: none; stroke-width: 1; stroke-dasharray: none; stroke-linecap: butt; stroke-dashoffset: 0; stroke-linejoin: miter; stroke-miterlimit: 4; fill: rgb(133,133,135); fill-rule: nonzero; opacity: 1;"  transform=" translate(-63.39, -106.31)" d="M 61.36 108.1 c -0.16 0.24 -0.04 2.19 -0.16 2.54 c -0.12 0.36 -1.9 0.2 -2.83 0.24 c -1.13 0.05 -3.68 0 -3.68 0 s 0 1.62 0.04 1.98 s 0.32 0.93 1.54 0.93 s 5.22 -0.16 5.87 -0.2 s 1.34 -0.59 1.33 -1.7 c -0.01 -0.85 0.01 -2.57 0.01 -2.57 s 6.75 -6.49 7.48 -7.13 c 0.73 -0.65 1.19 -1.01 1.13 -1.98 c -0.04 -0.65 -0.68 -1.37 -0.68 -1.37 l -10.05 9.26 z" stroke-linecap="round" />
</g>
		<g transform="matrix(1 0 0 1 0.5 -1)"  >
<g style=""   >
</g>
</g>
</g>
</g>
</svg>